<?xml version="1.0" standalone="no"?>
<!DOCTYPE svg PUBLIC "-//W3C//DTD SVG 20010904//EN"
 "http://www.w3.org/TR/2001/REC-SVG-20010904/DTD/svg10.dtd">
<svg version="1.0" xmlns="http://www.w3.org/2000/svg"
 width="16.000000pt" height="16.000000pt" viewBox="0 0 16.000000 16.000000"
 preserveAspectRatio="xMidYMid meet">
<metadata>
Created by potrace 1.11, written by Peter Selinger 2001-2013
</metadata>
<g transform="translate(0.000000,16.000000) scale(0.001395,-0.001395)"
fill="#000000" stroke="none">
<path d="M5458 11466 c-1 -2 -52 -6 -113 -10 -60 -3 -128 -8 -150 -10 -22 -3
-80 -10 -130 -16 -49 -6 -110 -13 -135 -16 -25 -2 -54 -7 -66 -9 -12 -3 -39
-7 -60 -10 -21 -3 -48 -8 -60 -10 -12 -3 -39 -7 -60 -11 -79 -12 -346 -74
-475 -109 -237 -65 -556 -178 -784 -278 -119 -52 -451 -222 -580 -298 -189
-110 -453 -286 -560 -371 -5 -5 -35 -27 -65 -50 -30 -24 -57 -45 -60 -48 -3
-3 -27 -23 -55 -45 -206 -163 -506 -455 -710 -691 -106 -123 -109 -126 -224
-278 -307 -402 -562 -848 -746 -1301 -20 -49 -40 -99 -45 -110 -4 -11 -13 -33
-18 -50 -6 -16 -26 -75 -46 -130 -30 -83 -97 -296 -111 -355 -2 -8 -13 -51
-25 -95 -48 -184 -103 -463 -125 -635 -4 -30 -9 -62 -10 -70 -1 -8 -6 -49 -10
-90 -4 -41 -9 -86 -11 -100 -12 -101 -19 -276 -19 -525 0 -310 7 -451 30 -640
2 -22 7 -62 10 -90 3 -27 8 -66 11 -85 3 -19 7 -50 10 -69 7 -57 32 -194 49
-271 3 -14 8 -38 11 -55 9 -51 64 -278 79 -325 7 -25 23 -79 35 -120 23 -80
26 -90 90 -275 67 -190 264 -649 302 -701 4 -6 25 -44 46 -85 22 -41 49 -90
61 -109 11 -19 24 -42 28 -50 4 -8 34 -59 67 -113 34 -54 66 -105 71 -115 29
-50 150 -223 238 -340 265 -357 604 -713 932 -980 39 -31 76 -63 83 -69 27
-26 281 -212 367 -270 135 -90 189 -124 315 -197 63 -37 126 -73 140 -81 109
-64 431 -218 580 -276 41 -17 89 -36 105 -44 29 -13 405 -142 415 -143 3 0 37
-9 75 -20 94 -28 345 -90 397 -97 24 -4 45 -8 48 -10 7 -4 270 -50 345 -60 28
-3 64 -8 80 -10 30 -4 117 -14 185 -20 263 -26 801 -26 1045 -1 17 2 62 7 100
10 39 4 81 9 95 11 14 2 45 7 70 10 25 4 61 9 80 11 19 3 85 14 145 26 111 20
142 26 183 33 12 2 30 6 40 9 9 3 28 7 42 10 166 29 560 152 855 266 11 4 25
9 30 11 10 3 78 33 210 92 111 50 381 189 490 252 187 108 472 297 605 401
315 247 461 380 755 688 73 76 255 295 354 426 107 141 331 470 331 485 0 4 8
19 19 33 80 116 283 519 378 752 18 47 38 94 43 105 64 144 216 643 254 840 3
11 11 54 20 95 8 41 18 89 20 105 10 61 17 101 23 130 8 46 12 76 18 130 2 28
7 61 9 75 3 14 8 52 11 85 3 33 8 74 10 90 25 206 25 969 0 1047 -2 7 -6 49
-10 93 -3 44 -10 107 -15 140 -5 33 -11 76 -14 95 -15 123 -75 417 -121 597
-72 277 -193 631 -281 821 -13 29 -24 55 -24 57 0 3 -37 83 -83 178 -245 508
-587 1007 -972 1416 -190 202 -442 436 -605 562 -24 18 -50 39 -56 44 -13 12
-48 38 -135 102 -605 444 -1257 752 -1989 939 -52 13 -104 26 -115 29 -11 2
-29 6 -40 8 -33 8 -168 36 -200 41 -75 14 -143 25 -175 30 -82 11 -136 19
-152 22 -9 1 -67 7 -130 13 -62 6 -135 13 -163 16 -55 6 -701 16 -707 11z"/>
</g>
</svg>
